<?xml version="1.0" encoding="utf-8"?>
<!-- Generator: Adobe Illustrator 15.1.0, SVG Export Plug-In  -->
<!DOCTYPE svg PUBLIC "-//W3C//DTD SVG 1.1//EN" "http://www.w3.org/Graphics/SVG/1.1/DTD/svg11.dtd" [
	<!ENTITY ns_flows "http://ns.adobe.com/Flows/1.0/">
]>
<svg version="1.1"
	 xmlns="http://www.w3.org/2000/svg" xmlns:xlink="http://www.w3.org/1999/xlink" xmlns:a="http://ns.adobe.com/AdobeSVGViewerExtensions/3.0/"
	 x="0px" y="0px" width="451px" height="41px" viewBox="0 0 451 41" overflow="visible" enable-background="new 0 0 451 41"
	 xml:space="preserve">
<defs>
</defs>
<path d="M30.261,25.481l2.85,0.001c-0.005,9.916-5.82,15.783-14.882,15.779C8.37,41.258-0.006,35.042,0,21.308
	C0.007,6.091,8.729-0.004,17.905,0c9.004,0.004,14.986,5.535,14.982,15.222h-2.85c0.004-7.238-4.326-12.199-9.74-12.201
	c-5.985-0.002-7.468,3.93-7.471,10.199L12.82,28.038c-0.003,6.269,1.82,9.689,7.691,9.691
	C25.925,37.732,30.258,32.833,30.261,25.481"/>
<path d="M56.015,41.278c-11.969-0.005-18.348-9.354-18.344-20.468C37.676,9.412,43.665,0.011,56.032,0.016
	c12.082,0.005,18.518,9.696,18.513,20.81C74.54,32.224,68.496,41.283,56.015,41.278 M49.466,28.396
	c-0.003,7.352,2.105,9.917,6.55,9.919c4.446,0.001,6.554-2.563,6.557-9.915l0.007-15.502c0.003-7.352-2.56-9.916-6.55-9.918
	c-3.989-0.002-6.555,2.562-6.558,9.914L49.466,28.396z"/>
<polygon points="113.29,40.618 113.305,4.543 113.248,4.543 103.316,40.614 95.167,40.611 83.556,4.531 83.499,4.53 83.483,40.605 
	80.063,40.604 80.082,0.71 92.504,0.715 101.895,33.204 101.952,33.204 111.028,0.722 123.281,0.728 123.264,40.623 "/>
<polygon points="163.896,40.638 163.911,4.564 163.854,4.564 153.923,40.635 145.773,40.631 134.162,4.552 134.105,4.552 
	134.09,40.626 130.67,40.625 130.688,0.73 143.111,0.736 152.501,33.224 152.558,33.224 161.634,0.743 173.887,0.748 173.87,40.643 
	"/>
<path d="M197.919,41.336c-11.968-0.005-18.347-9.354-18.343-20.467c0.005-11.398,5.994-20.8,18.361-20.795
	c12.082,0.005,18.518,9.696,18.513,20.81C216.446,32.283,210.402,41.341,197.919,41.336 M191.371,28.455
	c-0.003,7.352,2.105,9.918,6.55,9.919c4.446,0.003,6.554-2.562,6.558-9.913l0.006-15.502c0.004-7.352-2.561-9.918-6.549-9.92
	c-3.99-0.001-6.556,2.562-6.559,9.914L191.371,28.455z"/>
<polygon points="253.275,0.782 253.257,40.676 243.397,40.671 225.517,5.045 225.461,5.045 225.447,40.665 222.027,40.664 
	222.043,0.769 234.638,0.774 249.729,31.329 249.842,31.329 249.854,0.781 "/>
<polygon points="340.652,0.66 340.65,3.625 325.206,3.618 325.2,17.467 338.65,17.472 338.648,20.436 325.2,20.431 325.19,37.584 
	340.636,37.591 340.635,40.554 315.273,40.544 315.291,0.649 "/>
<path d="M363.373,40.564l-16.471-0.007l0.018-39.895l16.471,0.007c10.884,0.005,17.264,9.241,17.26,19.784
	C380.647,31.453,374.771,40.569,363.373,40.564 M369.085,14.408c0.002-4.274-0.908-10.771-8.203-10.775l-4.047-0.001l-0.016,33.966
	l3.991,0.002c7.808,0.003,8.267-6.722,8.269-11.737L369.085,14.408z"/>
<path d="M419.174,21.895l-0.007,18.693l-4.33-0.003l-1.539-2.108c-2.681,1.993-6.043,2.79-8.893,2.788
	c-10.656-0.004-19.203-7.018-19.196-20.41c0.005-13.393,8.559-20.856,18.475-20.852s14.471,7.245,14.469,15.223l-2.85-0.001
	c0.005-8.776-4.782-12.198-10.482-12.2c-5.699-0.003-7.354,3.814-7.355,10.369l-0.006,14.476
	c-0.003,6.554,1.934,10.431,7.348,10.434c4.56,0.001,6.098-1.479,6.1-5.298l0.004-8.15l-8.32-0.004v-2.964L419.174,21.895z"/>
<polygon points="451.099,0.707 451.097,3.67 435.652,3.664 435.647,17.513 449.096,17.519 449.096,20.482 435.646,20.477 
	435.638,37.63 451.083,37.637 451.083,40.601 425.722,40.591 425.738,0.696 "/>
<polygon fill="#C56928" points="297.283,40.704 280.418,0.702 271.317,0.71 288.137,40.704 "/>
</svg>
