<?xml version="1.0" encoding="utf-8"?>
<!-- Generator: Adobe Illustrator 15.1.0, SVG Export Plug-In  -->
<!DOCTYPE svg PUBLIC "-//W3C//DTD SVG 1.1//EN" "http://www.w3.org/Graphics/SVG/1.1/DTD/svg11.dtd" [
	<!ENTITY ns_flows "http://ns.adobe.com/Flows/1.0/">
]>
<svg version="1.1"
	 xmlns="http://www.w3.org/2000/svg" xmlns:xlink="http://www.w3.org/1999/xlink" xmlns:a="http://ns.adobe.com/AdobeSVGViewerExtensions/3.0/"
	 x="0px" y="0px" width="16px" height="16px" viewBox="-4.914 -1.709 16 16"
	 overflow="visible" enable-background="new -4.914 -1.709 16 16" xml:space="preserve">
<defs>
</defs>
<path d="M2.326,1.958c0,0.565-0.333,0.942-0.748,0.942c-0.453,0-0.592-0.263-0.592-0.744V1.017C0.985,0.535,1.099,0.232,1.559,0.232
	c0.417,0,0.749,0.38,0.749,0.937h0.22C2.528,0.425,2.067,0,1.375,0C0.67,0,0,0.469,0,1.638c0,1.056,0.644,1.534,1.402,1.534
	c0.696,0,1.143-0.451,1.143-1.214H2.326z"/>
<polygon points="2.964,4.073 2.305,4.073 4.147,8.309 4.806,8.309 "/>
<polygon points="6.337,9.609 6.337,9.381 4.388,9.381 4.388,12.448 6.337,12.448 6.337,12.22 5.15,12.22 5.15,10.902 6.184,10.902 
	6.184,10.673 5.15,10.673 5.15,9.609 "/>
</svg>
