<?xml version="1.0" encoding="utf-8"?>
<!-- Generator: Adobe Illustrator 15.1.0, SVG Export Plug-In  -->
<!DOCTYPE svg PUBLIC "-//W3C//DTD SVG 1.1//EN" "http://www.w3.org/Graphics/SVG/1.1/DTD/svg11.dtd" [
	<!ENTITY ns_flows "http://ns.adobe.com/Flows/1.0/">
]>
<svg version="1.1"
	 xmlns="http://www.w3.org/2000/svg" xmlns:xlink="http://www.w3.org/1999/xlink" xmlns:a="http://ns.adobe.com/AdobeSVGViewerExtensions/3.0/"
	 x="0px" y="0px" width="428px" height="201px" viewBox="0 0 428 201" overflow="visible" enable-background="new 0 0 428 201"
	 xml:space="preserve">
<defs>
</defs>
<path d="M30.259,25.487l2.85,0.003c-0.01,9.916-5.829,15.78-14.89,15.771C8.36,41.253-0.012,35.033,0,21.299
	C0.015,6.082,8.74-0.009,17.916,0C26.921,0.008,32.9,5.542,32.891,15.23l-2.85-0.002c0.007-7.238-4.32-12.201-9.734-12.206
	c-5.985-0.006-7.47,3.926-7.476,10.195l-0.014,14.818c-0.006,6.268,1.815,9.69,7.685,9.695
	C25.916,37.736,30.252,32.839,30.259,25.487"/>
<path d="M56.004,41.298c-11.969-0.012-18.343-9.365-18.333-20.478C37.683,9.422,43.676,0.024,56.043,0.036
	c12.082,0.012,18.513,9.706,18.502,20.819C74.534,32.254,68.485,41.309,56.004,41.298 M49.462,28.412
	c-0.007,7.352,2.1,9.919,6.545,9.923c4.445,0.004,6.556-2.56,6.562-9.911l0.015-15.502C62.591,5.57,60.029,3.004,56.04,3
	c-3.989-0.004-6.557,2.558-6.563,9.91L49.462,28.412z"/>
<polygon points="113.279,40.668 113.313,4.593 113.257,4.593 103.306,40.659 95.156,40.651 83.564,4.565 83.508,4.564 83.473,40.64 
	80.053,40.637 80.091,0.742 92.515,0.754 101.888,33.248 101.945,33.248 111.038,0.772 123.292,0.783 123.253,40.678 "/>
<polygon points="163.886,40.716 163.92,4.641 163.864,4.641 153.913,40.707 145.763,40.699 134.171,4.613 134.115,4.613 
	134.08,40.689 130.66,40.685 130.698,0.79 143.122,0.802 152.495,33.296 152.552,33.296 161.645,0.82 173.897,0.831 173.86,40.726 
	"/>
<path d="M197.909,41.432c-11.969-0.011-18.343-9.364-18.333-20.477c0.012-11.398,6.005-20.797,18.372-20.785
	c12.082,0.012,18.513,9.706,18.502,20.819C216.439,32.388,210.39,41.443,197.909,41.432 M191.367,28.546
	c-0.007,7.352,2.1,9.919,6.545,9.923c4.445,0.005,6.556-2.559,6.562-9.91l0.015-15.502c0.007-7.352-2.555-9.919-6.544-9.923
	c-3.989-0.003-6.557,2.558-6.563,9.91L191.367,28.546z"/>
<polygon points="253.285,0.906 253.247,40.801 243.389,40.792 225.526,5.154 225.47,5.154 225.436,40.774 222.016,40.771 
	222.055,0.877 234.648,0.888 249.723,31.451 249.836,31.451 249.865,0.903 "/>
<polygon points="317.544,160.617 317.541,163.581 302.096,163.566 302.083,177.415 315.533,177.428 315.53,180.392 302.08,180.379 
	302.063,197.533 317.509,197.548 317.507,200.512 292.146,200.488 292.183,160.594 "/>
<path d="M340.245,200.533l-16.471-0.016l0.037-39.895l16.47,0.016c10.886,0.011,17.261,9.25,17.25,19.793
	C357.521,191.431,351.644,200.544,340.245,200.533 M345.969,174.38c0.004-4.274-0.902-10.772-8.197-10.779l-4.047-0.004
	l-0.032,33.967l3.99,0.003c7.807,0.009,8.271-6.716,8.275-11.731L345.969,174.38z"/>
<path d="M396.056,181.894l-0.018,18.693l-4.331-0.005l-1.537-2.109c-2.681,1.991-6.044,2.786-8.894,2.783
	c-10.657-0.01-19.199-7.027-19.187-20.42c0.013-13.394,8.568-20.852,18.486-20.843c9.915,0.01,14.468,7.253,14.46,15.231
	l-2.85-0.003c0.009-8.776-4.775-12.201-10.475-12.206c-5.699-0.006-7.356,3.811-7.362,10.365l-0.014,14.476
	c-0.006,6.554,1.929,10.432,7.343,10.438c4.56,0.004,6.099-1.477,6.103-5.295l0.008-8.149l-8.32-0.009l0.003-2.964L396.056,181.894z
	"/>
<polygon points="427.99,160.722 427.987,163.686 412.542,163.671 412.529,177.52 425.979,177.533 425.977,180.497 412.526,180.483 
	412.51,197.638 427.955,197.652 427.953,200.616 402.592,200.593 402.629,160.698 "/>
<polygon fill="#C46728" points="260.349,57.797 251.196,57.787 288.339,143.426 297.491,143.438 "/>
<rect fill="none" width="427.99" height="201.256"/>
</svg>
